<?xml version="1.0" encoding="UTF-8" standalone="no"?>
<!-- Created with Inkscape (http://www.inkscape.org/) -->

<svg
   xmlns:dc="http://purl.org/dc/elements/1.1/"
   xmlns:cc="http://creativecommons.org/ns#"
   xmlns:rdf="http://www.w3.org/1999/02/22-rdf-syntax-ns#"
   xmlns:svg="http://www.w3.org/2000/svg"
   xmlns="http://www.w3.org/2000/svg"
   xmlns:sodipodi="http://sodipodi.sourceforge.net/DTD/sodipodi-0.dtd"
   xmlns:inkscape="http://www.inkscape.org/namespaces/inkscape"
   width="100.42458"
   height="68"
   id="svg3079"
   version="1.1"
   inkscape:version="0.48.4 r9939"
   sodipodi:docname="de-core.svg"
   class="de-core-logo">
  <defs
     id="defs3081" />
  <sodipodi:namedview
     id="base"
     pagecolor="#ffffff"
     bordercolor="#666666"
     borderopacity="1.0"
     inkscape:pageopacity="0.0"
     inkscape:pageshadow="2"
     inkscape:zoom="0.9983453"
     inkscape:cx="122.87608"
     inkscape:cy="112.20964"
     inkscape:document-units="px"
     inkscape:current-layer="layer1"
     showgrid="false"
     fit-margin-top="0"
     fit-margin-left="0"
     fit-margin-right="0"
     fit-margin-bottom="0"
     inkscape:window-width="1366"
     inkscape:window-height="706"
     inkscape:window-x="-8"
     inkscape:window-y="-8"
     inkscape:window-maximized="1" />
  <metadata
     id="metadata3084">
    <rdf:RDF>
      <cc:Work
         rdf:about="">
        <dc:format>image/svg+xml</dc:format>
        <dc:type
           rdf:resource="http://purl.org/dc/dcmitype/StillImage" />
        <dc:title />
      </cc:Work>
    </rdf:RDF>
  </metadata>
  <g
     inkscape:label="Layer 1"
     inkscape:groupmode="layer"
     id="layer1"
     transform="translate(0.23615355,-26.811434)">
    <path
       class="circle"
       style="fill:#000000"
       inkscape:connector-curvature="0"
       d="m 30.820867,60.811434 c 0,-18.778022 15.528384,-34 34.683773,-34 19.1556,0 34.68379,15.221978 34.68379,34 0,18.778022 -15.52819,34 -34.68379,34 -19.155389,0 -34.683773,-15.221978 -34.683773,-34 z"
       id="Ellipse" />
    <g
       class="core"
       style="font-size:67.90499115px;font-weight:bold;text-align:right;line-height:125%;color:#ffffff;fill:#ffffff;font-family:Myriad Pro"
       id="text3005"
       transform="matrix(0.39274026,0,0,0.39274026,-0.14340655,57.575166)">
      <path
         class="c"
         d="m 115.29263,22.349809 c -1.14095,0.452703 -2.54797,0.831987 -4.22107,1.137852 -1.67316,0.305883 -3.37382,0.464938 -5.10198,0.477165 -5.0286,-0.05352 -8.91932,-1.506422 -11.672169,-4.358711 -2.752886,-2.852263 -4.147672,-6.782745 -4.184362,-11.7914583 0.102454,-5.4995921 1.622648,-9.6044231 4.560588,-12.314505 2.937902,-2.710008 6.678743,-4.0619712 11.222533,-4.0558937 1.98356,0.016865 3.76069,0.2034491 5.33139,0.5597519 1.57063,0.3563837 2.92565,0.7815482 4.06507,1.2754946 l 2.27571,-8.8825925 c -1.01249,-0.541351 -2.56633,-1.036868 -4.66153,-1.486552 -2.09528,-0.449586 -4.60344,-0.688167 -7.52451,-0.715744 -7.67747,0.03981 -14.051887,2.3094 -19.12327,6.808765 -5.071403,4.4994521 -7.70192,10.99010034 -7.891559,19.4719645 0.0107,7.1972415 2.191586,13.0822595 6.542655,17.6550705 4.35105,4.572823 10.808052,6.934172 19.371024,7.084052 3.03424,-0.02447 5.64641,-0.250818 7.8365,-0.679042 2.19003,-0.428225 3.81116,-0.911505 4.86341,-1.449844 z"
         style="font-size:73.41080475px;line-height:125%"
         id="path3128"
         inkscape:connector-curvature="0" />
      <path
         class="o"
         d="m 146.17695,-17.805384 c -7.39453,0.152988 -13.23367,2.618334 -17.51743,7.396044 -4.28378,4.7777963 -6.47078,10.95033545 -6.561,18.5176362 0.052,7.2155948 2.09523,13.1740218 6.12972,17.8752998 4.03447,4.701291 9.7482,7.136049 17.1412,7.304282 7.33942,-0.07188 13.19691,-2.387348 17.57249,-6.946408 4.37548,-4.559049 6.61754,-10.930406 6.72618,-19.1140921 -0.0291,-7.01672867 -2.04482,-12.8956298 -6.04714,-17.6367209 -4.00241,-4.741006 -9.81708,-7.20635 -17.44402,-7.396041 z m -0.29364,8.8825927 c 3.87081,0.1330968 6.82861,1.7756409 8.87342,4.9276374 2.04473,3.15206946 3.07553,7.0152593 3.09239,11.5895811 -0.023,4.9077748 -1.0599,8.9116668 -3.11075,12.0116868 -2.05092,3.100046 -4.97813,4.699768 -8.78165,4.799171 -3.77757,-0.08258 -6.72008,-1.624183 -8.82754,-4.624821 -2.10749,-3.000613 -3.17805,-6.964741 -3.21168,-11.8923974 0.026,-4.9077269 1.07514,-8.9116195 3.14745,-12.0116899 2.07228,-3.0999972 5.01173,-4.6997183 8.81836,-4.799168 z"
         style="font-size:73.41080475px;line-height:125%"
         id="path3130"
         inkscape:connector-curvature="0" />
      <path
         class="r"
         d="m 176.99486,32.48037 11.08489,0 0,-19.453613 3.37685,0 c 2.24204,-0.02292 3.97941,0.536827 5.2121,1.67925 1.23265,1.142458 2.16251,3.225461 2.78958,6.249015 0.7356,3.058752 1.39323,5.56692 1.97289,7.524509 0.5796,1.957598 1.07206,3.291209 1.47737,4.000839 l 11.45194,0 c -0.48944,-1.067502 -1.08895,-2.933334 -1.79854,-5.597504 -0.70967,-2.664159 -1.456,-5.447613 -2.239,-8.35037 -0.60567,-2.289453 -1.43153,-4.225636 -2.47758,-5.808554 -1.04613,-1.582879 -2.42256,-2.7299069 -4.12931,-3.4410881 l 0,-0.2202295 c 2.22673,-0.7876029 4.21491,-2.2221527 5.96455,-4.3036536 1.74956,-2.0814455 2.6733,-4.70890393 2.77122,-7.8823831 -0.006,-2.2756678 -0.39767,-4.2760849 -1.17455,-6.0012572 -0.77696,-1.7250895 -1.90258,-3.1749315 -3.37686,-4.3495335 -1.74963,-1.382505 -3.93969,-2.379655 -6.57018,-2.991452 -2.63055,-0.6117 -5.77493,-0.911456 -9.43317,-0.89927 -2.99758,0.0062 -5.77492,0.104048 -8.33202,0.293639 -2.55712,0.189691 -4.74717,0.43439 -6.57018,0.734099 z m 11.08489,-41.1829317 c 0.39456,-0.079487 1.00019,-0.1590152 1.8169,-0.2385842 0.81666,-0.079486 1.89946,-0.1223079 3.24838,-0.1284651 2.59073,0.035216 4.60338,0.6255526 6.03796,1.7710123 1.43452,1.1455394 2.1625,2.8553758 2.18394,5.1295145 -0.0214,2.19162258 -0.80447,3.9198108 -2.34911,5.1845697 -1.54469,1.2648179 -3.72252,1.9102128 -6.53348,1.9361867 l -4.40459,0 z"
         style="font-size:73.41080475px;line-height:125%"
         id="path3132"
         inkscape:connector-curvature="0" />
      <path
         class="e"
         d="m 250.01988,2.455737 -18.20565,0 0,-10.2773804 19.30679,0 0,-9.1762326 -30.5385,0 0,49.478246 31.56624,0 0,-9.176233 -20.33453,0 0,-11.745577 18.20565,0 z"
         style="font-size:73.41080475px;line-height:125%"
         id="path3134"
         inkscape:connector-curvature="0" />
    </g>
    <g
       class="de"
       style="font-size:72.90206909px;text-align:right;color:#000000;fill:#000000;font-family:Myriad Pro"
       id="text3009"
       transform="matrix(0.39274026,0,0,0.39274026,-0.14340655,57.575166)">
      <path
         class="d"
         d="m -0.23615354,32.625682 c 1.60078034,0.183772 3.35648084,0.326536 5.26710664,0.428294 1.9106043,0.101757 3.9943595,0.153395 6.2512719,0.154915 4.796265,-0.0076 9.036676,-0.612064 12.721246,-1.813415 3.684511,-1.201348 6.685605,-2.954011 9.003291,-5.257995 2.303938,-2.272077 4.056601,-5.018016 5.257993,-8.237827 1.201305,-3.219781 1.805777,-6.840534 1.813417,-10.8622687 -0.01523,-3.9609332 -0.622742,-7.39335833 -1.822529,-10.2972858 -1.199874,-2.9038553 -2.900899,-5.3521155 -5.103079,-7.3447875 -2.141509,-2.009293 -4.857073,-3.531104 -8.146702,-4.565435 -3.289691,-1.034236 -7.208122,-1.553655 -11.755306,-1.55826 -2.521181,0.0061 -4.9147665,0.103327 -7.1807628,0.291604 -2.2660201,0.188376 -4.3680003,0.43138 -6.30594674,0.729012 z M 6.1062448,-11.042095 c 0.838351,-0.186766 1.8771914,-0.341682 3.1165244,-0.464746 1.2393028,-0.122977 2.6790988,-0.186764 4.3193908,-0.191364 6.702323,0.06535 11.705158,1.7754883 15.008521,5.1304163 3.303294,3.3550067 4.934455,7.9629612 4.893488,13.8238774 -0.02434,6.6735093 -1.816491,11.8069583 -5.376459,15.4003623 -3.560035,3.593425 -8.742085,5.409877 -15.546166,5.449361 -1.251487,0.003 -2.430054,-0.02126 -3.5357056,-0.0729 C 7.8801576,27.981276 6.920294,27.884075 6.1062448,27.741306 z"
         id="path3123"
         inkscape:connector-curvature="0" />
      <path
         class="e"
         d="m 73.760258,4.4858457 -19.100096,0 0,-15.5279407 20.193613,0 0,-5.321783 -26.536012,0 0,49.135362 27.629529,0 0,-5.321782 -21.28713,0 0,-17.7149749 19.100096,0 z"
         id="path3125"
         inkscape:connector-curvature="0" />
    </g>
  </g>
</svg>
